:FULLY-SPECIFIED
:FORCE-ALL-JOINTS-BE-3DOF
:DEGREES
918
root -0.229262 14.1564 -36.3167 12.6518 -27.4805 -16.1324
lfemur -63.9639 31.0583 -0.349447
ltibia 69.366 -0 0
lfoot -6.5707 -8.79757 0.00756662
ltoes -10.5461 0 0
rfemur 5.61652 -8.52016 12.8483
rtibia 38.6221 -0 0
rfoot -22.7145 -28.3516 -0.00293723
rtoes -28.0875 0 0
lowerback 11.405 0.0398944 6.59605
upperback -1.6849 1.38507 5.49779
thorax -8.22917 0.487956 1.90381
lowerneck -3.78214 7.80188 2.31433
upperneck 4.23159 10.3177 -0.689487
head 2.14037 5.16225 -0.283821
lclavicle -5.19755e-15 1.08754e-14 1.13848e-29
lhumerus 12.3425 -8.76189 70.0451
lradius 24.1109 -0 0
lwrist -28.3957 0 0
lhand -29.198 30.8577 0.00416622
lfingers 7.12502 -0 0
lthumb -2.5427 60.7795 0.00456272
rclavicle -5.19755e-15 1.08754e-14 1.13848e-29
rhumerus -76.729 21.6384 -96.6029
rradius 110.57 -0 0
rwrist -67.9091 0 0
rhand -11.3339 -24.2718 -4.195e-05
rfingers 7.12502 -0 0
rthumb 14.6988 -53.7307 -4.01661e-05
919
root -0.216205 14.1444 -36.3034 12.6361 -27.4646 -16.1925
lfemur -64.1178 31.1733 -0.423113
ltibia 69.6207 -0 0
lfoot -6.61681 -8.90283 0.0080079
ltoes -10.142 0 0
rfemur 5.70027 -8.55761 12.7917
rtibia 38.6155 -0 0
rfoot -22.7422 -28.2836 -0.00310851
rtoes -28.2309 0 0
lowerback 11.3698 0.0147303 6.63976
upperback -1.66888 1.35746 5.58186
thorax -8.19364 0.475104 1.97444
lowerneck -3.78686 7.81198 2.36296
upperneck 4.31846 10.3305 -0.725628
head 2.17561 5.16859 -0.299773
lclavicle -3.43834e-15 6.72441e-15 1.20487e-29
lhumerus 12.3022 -10.8573 70.3681
lradius 24.8244 -0 0
lwrist -26.5101 0 0
lhand -28.8676 30.8658 0.00440931
lfingers 7.12502 -0 0
lthumb -2.22361 60.7886 0.00482893
rclavicle -3.43834e-15 6.72441e-15 1.20487e-29
rhumerus -76.7311 21.631 -96.5575
rradius 110.559 -0 0
rwrist -67.8669 0 0
rhand -11.3324 -24.2899 -4.43962e-05
rfingers 7.12502 -0 0
rthumb 14.7003 -53.7487 -4.25082e-05
920
root -0.202851 14.1321 -36.2897 12.62 -27.4483 -16.254
lfemur -64.2755 31.2907 -0.498924
ltibia 69.8811 -0 0
lfoot -6.66398 -9.01048 0.0083716
ltoes -9.7286 0 0
rfemur 5.78598 -8.59582 12.7337
rtibia 38.6088 -0 0
rfoot -22.7706 -28.2141 -0.00324968
rtoes -28.3776 0 0
lowerback 11.3337 -0.0109791 6.68448
upperback -1.65253 1.32919 5.66784
thorax -8.1573 0.461915 2.04666
lowerneck -3.79168 7.82232 2.4127
upperneck 4.40731 10.3437 -0.762573
head 2.21164 5.17508 -0.316085
lclavicle -1.63906e-15 2.47888e-15 1.25958e-29
lhumerus 12.2481 -13.0001 70.7027
lradius 25.5541 -0 0
lwrist -24.5816 0 0
lhand -28.5297 30.8741 0.00460968
lfingers 7.12502 -0 0
lthumb -1.89726 60.798 0.00504836
rclavicle -1.63906e-15 2.47888e-15 1.25958e-29
rhumerus -76.7333 21.6235 -96.511
rradius 110.548 -0 0
rwrist -67.8237 0 0
rhand -11.3309 -24.3084 -4.64124e-05
rfingers 7.12502 -0 0
rthumb 14.7017 -53.7671 -4.44386e-05
921
root -0.189266 14.1197 -36.2758 12.6035 -27.4318 -16.3165
lfemur -64.4363 31.4099 -0.576533
ltibia 70.1461 -0 0
lfoot -6.71196 -9.12 0.00865066
ltoes -9.30804 0 0
rfemur 5.87323 -8.6346 12.6747
rtibia 38.6019 -0 0
rfoot -22.7994 -28.1434 -0.003358
rtoes -28.5268 0 0
lowerback 11.297 -0.037105 6.73
upperback -1.63595 1.30041 5.7553
thorax -8.12036 0.448449 2.12013
lowerneck -3.79657 7.83283 2.4633
upperneck 4.4977 10.3572 -0.800138
head 2.24831 5.18169 -0.332675
lclavicle 1.91385e-16 -1.84017e-15 1.30156e-29
lhumerus 12.1792 -15.1797 71.0484
lradius 26.2965 -0 0
lwrist -22.6197 0 0
lhand -28.1859 30.8825 0.00476342
lfingers 7.12502 -0 0
lthumb -1.56524 60.8076 0.00521673
rclavicle 1.91385e-16 -1.84017e-15 1.30156e-29
rhumerus -76.7356 21.6158 -96.4637
rradius 110.536 -0 0
rwrist -67.7797 0 0
rhand -11.3293 -24.3273 -4.79593e-05
rfingers 7.12502 -0 0
rthumb 14.7032 -53.7858 -4.59198e-05
